<svg width="24" height="24" viewBox="0 0 24 24" fill="none"
  xmlns="http://www.w3.org/2000/svg">
  <path fill-rule="evenodd" clip-rule="evenodd" d="M12.25 15C12.25 14.5858 12.5858 14.25 13 14.25H16C16.4142 14.25 16.75 14.5858 16.75 15C16.75 15.4142 16.4142 15.75 16 15.75H13C12.5858 15.75 12.25 15.4142 12.25 15Z" fill="currentColor"/>
  <path fill-rule="evenodd" clip-rule="evenodd" d="M7.42385 8.51988C7.68903 8.20167 8.16195 8.15868 8.48016 8.42385L11.4802 10.9239C11.6512 11.0663 11.75 11.2774 11.75 11.5C11.75 11.7226 11.6512 11.9337 11.4802 12.0762L8.48016 14.5762C8.16195 14.8414 7.68903 14.7984 7.42385 14.4802C7.15868 14.1619 7.20167 13.689 7.51988 13.4239L9.82848 11.5L7.51988 9.57618C7.20167 9.31101 7.15868 8.83809 7.42385 8.51988Z" fill="currentColor"/>
  <path fill-rule="evenodd" clip-rule="evenodd" d="M6 3.75C4.75721 3.75 3.75 4.75721 3.75 6V18C3.75 19.2428 4.75721 20.25 6 20.25H18C19.2428 20.25 20.25 19.2428 20.25 18V6C20.25 4.75721 19.2428 3.75 18 3.75H6ZM2.25 6C2.25 3.92879 3.92879 2.25 6 2.25H18C20.0712 2.25 21.75 3.92879 21.75 6V18C21.75 20.0712 20.0712 21.75 18 21.75H6C3.92879 21.75 2.25 20.0712 2.25 18V6Z" fill="currentColor"/>
</svg>
