<svg width="24" height="24" viewBox="0 0 24 24" fill="none"
  xmlns="http://www.w3.org/2000/svg">
  <path fill-rule="evenodd" clip-rule="evenodd" d="M6 2.25C4.75736 2.25 3.75 3.25736 3.75 4.5V19.5C3.75 20.7426 4.75736 21.75 6 21.75H18C19.2426 21.75 20.25 20.7426 20.25 19.5V4.5C20.25 3.25736 19.2426 2.25 18 2.25H6ZM2.25 4.5C2.25 2.42893 3.92893 0.75 6 0.75H18C20.0711 0.75 21.75 2.42893 21.75 4.5V19.5C21.75 21.5711 20.0711 23.25 18 23.25H6C3.92893 23.25 2.25 21.5711 2.25 19.5V4.5Z" fill="#808080"/>
  <path fill-rule="evenodd" clip-rule="evenodd" d="M7.25 8C7.25 7.58579 7.58579 7.25 8 7.25H16C16.4142 7.25 16.75 7.58579 16.75 8C16.75 8.41421 16.4142 8.75 16 8.75H8C7.58579 8.75 7.25 8.41421 7.25 8Z" fill="#808080"/>
  <path fill-rule="evenodd" clip-rule="evenodd" d="M7.25 12C7.25 11.5858 7.58579 11.25 8 11.25H16C16.4142 11.25 16.75 11.5858 16.75 12C16.75 12.4142 16.4142 12.75 16 12.75H8C7.58579 12.75 7.25 12.4142 7.25 12Z" fill="#808080"/>
  <path fill-rule="evenodd" clip-rule="evenodd" d="M7.25 16C7.25 15.5858 7.58579 15.25 8 15.25H12C12.4142 15.25 12.75 15.5858 12.75 16C12.75 16.4142 12.4142 16.75 12 16.75H8C7.58579 16.75 7.25 16.4142 7.25 16Z" fill="#808080"/>
</svg>
