<svg width="24" height="24" viewBox="0 0 24 24" fill="none"
  xmlns="http://www.w3.org/2000/svg">
  <path d="M12 15.75C11.2588 15.7494 10.5344 15.5291 9.91834 15.117C9.30226 14.7049 8.82212 14.1194 8.53856 13.4346C8.25501 12.7498 8.18075 11.9963 8.32517 11.2693C8.46959 10.5423 8.82622 9.87444 9.35 9.35001C10.063 8.6667 11.0124 8.28522 12 8.28522C12.9876 8.28522 13.937 8.6667 14.65 9.35001C15.1738 9.87444 15.5304 10.5423 15.6748 11.2693C15.8192 11.9963 15.745 12.7498 15.4614 13.4346C15.1779 14.1194 14.6977 14.7049 14.0817 15.117C13.4656 15.5291 12.7412 15.7494 12 15.75ZM12 9.75C11.7043 9.74805 11.4112 9.80545 11.1381 9.91882C10.865 10.0322 10.6174 10.1992 10.41 10.41C9.98865 10.8319 9.75198 11.4038 9.75198 12C9.75198 12.5963 9.98865 13.1681 10.41 13.59C10.838 13.9995 11.4076 14.2281 12 14.2281C12.5924 14.2281 13.162 13.9995 13.59 13.59C14.0114 13.1681 14.248 12.5963 14.248 12C14.248 11.4038 14.0114 10.8319 13.59 10.41C13.3826 10.1992 13.135 10.0322 12.8619 9.91882C12.5888 9.80545 12.2957 9.74805 12 9.75Z" fill="currentColor"/>
  <path d="M12.51 21.75H11.51C10.9796 21.75 10.4709 21.5393 10.0958 21.1642C9.72071 20.7891 9.51 20.2804 9.51 19.75C9.52004 19.6455 9.49758 19.5404 9.44568 19.4491C9.39377 19.3578 9.31496 19.2848 9.22 19.24L9 19.15C8.88822 19.0956 8.76266 19.076 8.63961 19.0938C8.51657 19.1117 8.40173 19.1661 8.31 19.25C8.12343 19.4436 7.89976 19.5975 7.65234 19.7027C7.40492 19.8079 7.13884 19.8621 6.87 19.8621C6.60116 19.8621 6.33508 19.8079 6.08766 19.7027C5.84024 19.5975 5.61657 19.4436 5.43 19.25L4.7 18.53C4.50644 18.3434 4.35247 18.1198 4.24731 17.8723C4.14215 17.6249 4.08795 17.3588 4.08795 17.09C4.08795 16.8212 4.14215 16.5551 4.24731 16.3077C4.35247 16.0602 4.50644 15.8366 4.7 15.65C4.79353 15.5736 4.86039 15.4695 4.89095 15.3527C4.9215 15.2359 4.91417 15.1124 4.87 15L4.79 14.82C4.75581 14.734 4.69648 14.6604 4.61977 14.6086C4.54306 14.5569 4.45253 14.5295 4.36 14.53C3.8153 14.5435 3.28745 14.3406 2.892 13.9657C2.49655 13.5909 2.2657 13.0746 2.25 12.53V11.53C2.25 10.9996 2.46071 10.4909 2.83579 10.1158C3.21086 9.74071 3.71957 9.53 4.25 9.53C4.35432 9.53861 4.45881 9.51553 4.5498 9.46379C4.6408 9.41205 4.71406 9.33405 4.76 9.24L4.87 9C4.91428 8.89411 4.92556 8.77732 4.90236 8.66491C4.87917 8.5525 4.82258 8.44971 4.74 8.37C4.54644 8.18343 4.39247 7.95976 4.28731 7.71234C4.18215 7.46492 4.12795 7.19884 4.12795 6.93C4.12795 6.66116 4.18215 6.39508 4.28731 6.14766C4.39247 5.90024 4.54644 5.67657 4.74 5.49L5.47 4.76C5.65657 4.56644 5.88024 4.41247 6.12766 4.30731C6.37508 4.20215 6.64116 4.14795 6.91 4.14795C7.17884 4.14795 7.44492 4.20215 7.69234 4.30731C7.93976 4.41247 8.16343 4.56644 8.35 4.76C8.4336 4.84341 8.54104 4.8988 8.65748 4.9185C8.77392 4.93821 8.89361 4.92126 9 4.87L9.14 4.81C9.23426 4.77748 9.31635 4.71697 9.37532 4.63657C9.43428 4.55616 9.46731 4.45967 9.47 4.36C9.45655 3.8153 9.65945 3.28745 10.0343 2.892C10.4091 2.49655 10.9254 2.2657 11.47 2.25H12.47C13.0004 2.25 13.5091 2.46071 13.8842 2.83579C14.2593 3.21086 14.47 3.71957 14.47 4.25C14.4614 4.35432 14.4845 4.45881 14.5362 4.5498C14.5879 4.6408 14.6659 4.71406 14.76 4.76L14.93 4.83C15.0369 4.87372 15.1542 4.88566 15.2677 4.86437C15.3812 4.84309 15.4862 4.78948 15.57 4.71C15.7566 4.51644 15.9802 4.36247 16.2277 4.25731C16.4751 4.15215 16.7412 4.09795 17.01 4.09795C17.2788 4.09795 17.5449 4.15215 17.7923 4.25731C18.0398 4.36247 18.2634 4.51644 18.45 4.71L19.17 5.43C19.3636 5.61657 19.5175 5.84024 19.6227 6.08766C19.7279 6.33508 19.7821 6.60116 19.7821 6.87C19.7821 7.13884 19.7279 7.40492 19.6227 7.65234C19.5175 7.89976 19.3636 8.12343 19.17 8.31C19.0914 8.39226 19.0382 8.49549 19.0169 8.60727C18.9956 8.71905 19.0071 8.8346 19.05 8.94L19.13 9.13C19.1668 9.21332 19.2271 9.28415 19.3034 9.33386C19.3798 9.38357 19.4689 9.41002 19.56 9.41C20.1047 9.39655 20.6326 9.59945 21.028 9.97428C21.4235 10.3491 21.6543 10.8654 21.67 11.41V12.41C21.67 12.9404 21.4593 13.4491 21.0842 13.8242C20.7091 14.1993 20.2004 14.41 19.67 14.41C19.5657 14.4014 19.4612 14.4245 19.3702 14.4762C19.2792 14.5279 19.2059 14.6059 19.16 14.7L19.11 14.83C19.0564 14.9403 19.0373 15.0641 19.0551 15.1854C19.073 15.3067 19.1269 15.4198 19.21 15.51C19.4036 15.6966 19.5575 15.9202 19.6627 16.1677C19.7679 16.4151 19.8221 16.6812 19.8221 16.95C19.8221 17.2188 19.7679 17.4849 19.6627 17.7323C19.5575 17.9798 19.4036 18.2034 19.21 18.39L18.49 19.11C18.3034 19.3036 18.0798 19.4575 17.8323 19.5627C17.5849 19.6679 17.3188 19.7221 17.05 19.7221C16.7812 19.7221 16.5151 19.6679 16.2677 19.5627C16.0202 19.4575 15.7966 19.3036 15.61 19.11C15.528 19.0277 15.4235 18.9715 15.3096 18.9484C15.1958 18.9252 15.0776 18.9362 14.97 18.98L14.79 19.06C14.7042 19.0934 14.6311 19.1528 14.5808 19.23C14.5306 19.3071 14.5058 19.398 14.51 19.49C14.5376 19.7719 14.5067 20.0564 14.4194 20.3258C14.3321 20.5952 14.1902 20.8437 14.0025 21.0558C13.8148 21.2679 13.5854 21.439 13.3286 21.5584C13.0718 21.6779 12.7931 21.7431 12.51 21.75ZM8.75 17.58C9.02872 17.5813 9.30428 17.6391 9.56 17.75L9.71 17.81C10.083 17.9516 10.4052 18.2015 10.6351 18.5276C10.865 18.8537 10.992 19.2411 11 19.64C10.9932 19.716 11.0019 19.7926 11.0257 19.865C11.0495 19.9375 11.0879 20.0044 11.1384 20.0615C11.189 20.1186 11.2507 20.1648 11.3198 20.1972C11.3888 20.2296 11.4638 20.2476 11.54 20.25H12.54C12.6832 20.25 12.8206 20.1931 12.9218 20.0918C13.0231 19.9906 13.08 19.8532 13.08 19.71C13.0699 19.305 13.1831 18.9064 13.4045 18.5672C13.6259 18.2279 13.9452 17.9638 14.32 17.81H14.42C14.8043 17.6398 15.2309 17.5888 15.6445 17.6637C16.0581 17.7386 16.4397 17.9358 16.74 18.23C16.7894 18.2808 16.8485 18.3212 16.9137 18.3488C16.979 18.3763 17.0491 18.3905 17.12 18.3905C17.1909 18.3905 17.261 18.3763 17.3263 18.3488C17.3915 18.3212 17.4506 18.2808 17.5 18.23L18.22 17.51C18.3202 17.4089 18.3763 17.2723 18.3763 17.13C18.3763 16.9877 18.3202 16.8511 18.22 16.75C17.928 16.4591 17.7299 16.0872 17.6515 15.6826C17.573 15.2779 17.6178 14.859 17.78 14.48L17.84 14.34C17.9878 13.9745 18.2404 13.6608 18.566 13.4384C18.8916 13.2159 19.2757 13.0948 19.67 13.09C19.746 13.0968 19.8226 13.0881 19.895 13.0643C19.9675 13.0405 20.0344 13.0021 20.0915 12.9516C20.1486 12.901 20.1948 12.8393 20.2272 12.7702C20.2596 12.7012 20.2776 12.6262 20.28 12.55V11.55C20.28 11.4068 20.2231 11.2694 20.1218 11.1682C20.0206 11.0669 19.8832 11.01 19.74 11.01C19.335 11.0201 18.9364 10.9069 18.5972 10.6855C18.2579 10.4641 17.9938 10.1448 17.84 9.77V9.67C17.667 9.28622 17.6145 8.85898 17.6895 8.44474C17.7645 8.03051 17.9634 7.64878 18.26 7.35C18.3602 7.24888 18.4163 7.11232 18.4163 6.97C18.4163 6.82768 18.3602 6.69112 18.26 6.59L17.54 5.87C17.4389 5.76985 17.3023 5.71367 17.16 5.71367C17.0177 5.71367 16.8811 5.76985 16.78 5.87C16.4891 6.16204 16.1172 6.36009 15.7126 6.43853C15.3079 6.51697 14.889 6.4722 14.51 6.31H14.36C13.9948 6.15996 13.6821 5.90516 13.4614 5.57772C13.2408 5.25028 13.122 4.86485 13.12 4.47C13.1268 4.39402 13.1181 4.31745 13.0943 4.24497C13.0705 4.1725 13.0321 4.10565 12.9816 4.04853C12.931 3.99141 12.8693 3.94522 12.8002 3.9128C12.7312 3.88039 12.6562 3.86242 12.58 3.86H11.58C11.4368 3.86 11.2994 3.91689 11.1982 4.01816C11.0969 4.11943 11.04 4.25678 11.04 4.4C11.0501 4.80502 10.9369 5.20356 10.7155 5.54285C10.4941 5.88213 10.1748 6.14617 9.8 6.3L9.66 6.36C9.27953 6.52303 8.85892 6.56824 8.45249 6.48981C8.04607 6.41137 7.67249 6.21289 7.38 5.92C7.27888 5.81985 7.14232 5.76367 7 5.76367C6.85768 5.76367 6.72112 5.81985 6.62 5.92L5.89 6.64C5.7922 6.74234 5.73762 6.87844 5.73762 7.02C5.73762 7.16156 5.7922 7.29766 5.89 7.4C6.18204 7.69092 6.38009 8.06276 6.45853 8.46744C6.53697 8.87213 6.4922 9.29104 6.33 9.67L6.27 9.82C6.10626 10.1852 5.8367 10.4929 5.49619 10.7033C5.15568 10.9137 4.75989 11.017 4.36 11C4.28402 10.9932 4.20745 11.0019 4.13497 11.0257C4.0625 11.0495 3.99565 11.0879 3.93853 11.1384C3.88141 11.189 3.83522 11.2507 3.8028 11.3198C3.77039 11.3888 3.75242 11.4638 3.75 11.54V12.54C3.75 12.6109 3.76397 12.6811 3.79111 12.7466C3.81824 12.8122 3.85802 12.8717 3.90816 12.9218C3.95831 12.972 4.01784 13.0118 4.08335 13.0389C4.14887 13.066 4.21909 13.08 4.29 13.08C4.69502 13.0699 5.09356 13.1831 5.43285 13.4045C5.77213 13.6259 6.03617 13.9452 6.19 14.32L6.25 14.47C6.41096 14.8499 6.45411 15.2694 6.37388 15.6742C6.29364 16.0789 6.09372 16.4502 5.8 16.74C5.69985 16.8411 5.64367 16.9777 5.64367 17.12C5.64367 17.2623 5.69985 17.3989 5.8 17.5L6.53 18.22C6.57939 18.2708 6.63847 18.3112 6.70374 18.3388C6.76901 18.3663 6.83914 18.3805 6.91 18.3805C6.98085 18.3805 7.05099 18.3663 7.11626 18.3388C7.18153 18.3112 7.24061 18.2708 7.29 18.22C7.47829 18.0212 7.70449 17.8622 7.95524 17.7523C8.206 17.6424 8.47623 17.5838 8.75 17.58Z" fill="currentColor"/>
</svg>
